<?xml version="1.0" encoding="UTF-8"?>
<svg version="1.1" xmlns="http://www.w3.org/2000/svg" width="1024" height="1024">
<path d="M0 0 C337.92 0 675.84 0 1024 0 C1024 337.92 1024 675.84 1024 1024 C686.08 1024 348.16 1024 0 1024 C0 686.08 0 348.16 0 0 Z " fill="#FEF5DC" transform="translate(0,0)"/>
<path d="M0 0 C1.14111575 -0.00397774 1.14111575 -0.00397774 2.30528435 -0.00803584 C4.86319664 -0.01571623 7.42106083 -0.01628753 9.97898388 -0.01688576 C11.82805717 -0.02090123 13.67712959 -0.02533959 15.52620095 -0.03016531 C20.61472196 -0.04212754 25.70323349 -0.04777847 30.79176581 -0.05234647 C36.27738575 -0.05830399 41.76299438 -0.06991357 47.24860668 -0.08063698 C60.50144057 -0.10515913 73.7542782 -0.11978869 87.00712779 -0.13269705 C90.75106926 -0.13640938 94.49501035 -0.14038259 98.23895144 -0.14444971 C121.49311113 -0.16968871 144.74727161 -0.19175578 168.00144196 -0.20417786 C173.38785142 -0.20709903 178.77426087 -0.21006658 184.16067028 -0.21308327 C184.82984292 -0.21345418 185.49901555 -0.21382509 186.18846615 -0.21420723 C207.86906851 -0.22635411 229.54958953 -0.25728437 251.23015371 -0.29900479 C274.16501263 -0.34305813 297.09983873 -0.3687183 320.03474301 -0.37409842 C332.53142379 -0.3775095 345.02797629 -0.38922892 357.5246172 -0.42220116 C368.16964733 -0.45024198 378.81452288 -0.46118328 389.45958707 -0.4500057 C394.88741677 -0.44482927 400.31492293 -0.44763994 405.74270535 -0.47247124 C410.72054526 -0.49505315 415.69783092 -0.49415459 420.67568114 -0.47526737 C422.46787137 -0.47247985 424.26009992 -0.47799569 426.05222885 -0.4930803 C447.17410703 -0.65986608 464.40237329 5.53286892 479.71804333 20.46513939 C480.60362926 21.34685814 481.4892152 22.22857689 482.40163708 23.13701439 C483.07066051 23.77123314 483.73968395 24.40545189 484.42898083 25.05888939 C488.44777218 29.1779227 491.04944462 33.86692159 493.65163708 38.94951439 C493.98131481 39.58913109 494.31099255 40.22874779 494.65066051 40.88774681 C498.97190896 49.74807532 500.85569007 58.60052815 500.78754044 68.42024899 C500.79279955 69.3983634 500.79805866 70.37647782 500.80347714 71.38423207 C500.81737809 74.6455891 500.81008151 77.90654021 500.80277538 81.16791344 C500.80838332 83.5363421 500.81528688 85.90476798 500.82337135 88.27318949 C500.83978104 94.08929323 500.84227707 99.90528579 500.83878879 105.72140893 C500.8353709 112.69230595 500.84932227 119.66314169 500.86362689 126.63402101 C500.89260661 141.08657589 500.90107811 155.5390988 500.90279806 169.99167932 C500.90417798 181.15593326 500.91035971 192.32017471 500.91989994 203.48442459 C500.92259268 206.70090672 500.92526212 209.91738887 500.92792457 213.13387102 C500.92858772 213.93355816 500.92925086 214.73324531 500.9299341 215.55716539 C500.9483914 238.04474633 500.96023635 260.53232292 500.95890427 283.01991177 C500.95885753 283.86737631 500.95881079 284.71484085 500.95876264 285.58798613 C500.95851333 289.88303955 500.95821621 294.17809297 500.95790852 298.47314639 C500.95781877 299.75260591 500.95781877 299.75260591 500.9577272 301.05791311 C500.95760589 302.78283242 500.95748049 304.50775173 500.95735102 306.23267104 C500.95551337 333.06077894 500.97802352 359.88877303 501.01906872 386.71684837 C501.06519284 416.87685999 501.09096485 447.03679684 501.08817905 477.19684595 C501.08795517 480.41552858 501.08780904 483.6342112 501.0877161 486.85289383 C501.08768114 487.64538024 501.08764618 488.43786665 501.08761015 489.25436779 C501.087518 501.98431594 501.10664126 514.71416495 501.1325129 527.44408366 C501.15799626 540.24818834 501.16087033 553.05214865 501.14118493 565.85626472 C501.13110256 572.78712853 501.13038628 579.71766631 501.15724468 586.64849472 C501.18089054 593.00171814 501.1764948 599.35430121 501.15039229 605.70750933 C501.14579836 607.9975289 501.15119408 610.28759665 501.16797251 612.57755936 C501.32334002 635.29968925 496.56974262 652.93037727 480.71023083 669.85967064 C466.44666346 683.93016095 448.76103093 691.31478659 428.7133522 691.27123547 C427.59410052 691.27476381 427.59410052 691.27476381 426.4522377 691.27836344 C423.95595028 691.28501186 421.45971541 691.28459648 418.96341991 691.28418541 C417.15386865 691.28748662 415.34431812 691.29121273 413.53476852 691.29532689 C408.5647802 691.30532566 403.59480395 691.30906026 398.624807 691.3117162 C393.2632872 691.31562554 387.9017769 691.3252034 382.54026318 691.33392906 C369.59378951 691.35367524 356.64731509 691.36375714 343.70083013 691.37265685 C337.60069615 691.3770426 331.50056303 691.38240865 325.40042973 691.38764572 C305.11664955 691.40465582 284.83286992 691.41914953 264.54908371 691.42639446 C259.2874511 691.42830428 254.0258185 691.43022463 248.76418591 691.4321804 C247.45647088 691.43266414 246.14875586 691.43314789 244.80141311 691.43364628 C223.62183293 691.44194491 202.44230925 691.46728001 181.26275373 691.49976108 C159.50745499 691.53285254 137.75218496 691.5508451 115.99686092 691.5540387 C103.78639402 691.55620181 91.57600954 691.56492145 79.36556721 691.59049988 C68.96580357 691.61223531 58.56614238 691.62024325 48.1663586 691.6105331 C42.86412499 691.60599674 37.56210264 691.60783608 32.25989819 691.62729454 C27.39692553 691.64498628 22.53431731 691.64387991 17.67134046 691.62839725 C15.92093567 691.62603029 14.17050524 691.63029687 12.4201395 691.6422259 C-9.43258031 691.78181752 -28.13603251 686.10475284 -44.59836292 671.13701439 C-61.87689056 653.69899266 -66.21701099 632.83317034 -66.11493199 609.13763427 C-66.109862 608.04490392 -66.104792 606.95217357 -66.09956837 605.82633018 C-66.1034668 603.48857125 -66.10911158 601.15081469 -66.11633927 598.81306368 C-66.13103359 592.42479639 -66.12094839 586.0367771 -66.10660255 579.64851797 C-66.09463706 573.45537604 -66.10548002 567.26225051 -66.11372649 561.06910933 C-66.13087341 547.62955618 -66.12540639 534.19008488 -66.1103693 520.75053346 C-66.0972959 508.98969537 -66.09212572 497.22888562 -66.09468746 485.46804047 C-66.09484788 484.68664489 -66.09500829 483.90524932 -66.09517357 483.1001751 C-66.0958372 479.92791255 -66.09653962 476.75565002 -66.09729891 473.5833875 C-66.10431611 443.85171957 -66.08885439 414.12010151 -66.06267545 384.38844627 C-66.03955974 357.99594486 -66.03417379 331.60349825 -66.04440784 305.210989 C-66.04701003 298.45122562 -66.0495951 291.69146225 -66.05200577 284.9316988 C-66.05230322 284.09939072 -66.05260066 283.26708265 -66.05290712 282.40955311 C-66.06052822 260.32978962 -66.05410432 238.25003058 -66.04330975 216.17026907 C-66.04216199 213.7934482 -66.04101881 211.41662732 -66.03988292 209.03980645 C-66.03912768 207.4632135 -66.03836203 205.88662057 -66.03758592 204.31002763 C-66.03193646 192.55828483 -66.03325152 180.80655623 -66.03781414 169.05481339 C-66.04293008 155.68826088 -66.03703291 142.32176138 -66.01691984 128.95522206 C-66.00692489 122.13820205 -66.00192621 115.32127339 -66.00981236 108.50424767 C-66.0168893 102.2588584 -66.01001727 96.01364262 -65.99220873 89.76827616 C-65.98817733 87.51413159 -65.989142 85.2599711 -65.99572759 83.00583255 C-66.07598579 52.95284146 -66.07598579 52.95284146 -58.78586292 39.69951439 C-58.43257923 39.02976585 -58.07929554 38.36001732 -57.71530628 37.66997337 C-55.09254582 32.79930225 -52.30287345 28.26722662 -48.59836292 24.13701439 C-47.97832386 23.42545189 -47.3582848 22.71388939 -46.71945667 21.98076439 C-34.66309675 9.01407158 -17.89100727 -0.03042885 0 0 Z " fill="#FEF4DB" transform="translate(295.59836292266846,173.8629856109619)"/>
<path d="M0 0 C34.0966024 30.0231145 57.19021725 73.48343558 60.46289062 118.99707031 C63.02841148 168.62428847 49.62055253 215.30747884 16.46289062 252.99707031 C15.6353125 253.95742188 14.80773437 254.91777344 13.95507812 255.90722656 C-10.88580798 284.235841 -45.40836089 302.27032022 -81.78710938 310.74707031 C-82.6859082 310.95807373 -83.58470703 311.16907715 -84.51074219 311.38647461 C-129.46439731 321.41504084 -180.08834725 310.6421684 -218.74804688 286.48925781 C-229.07382664 279.80541553 -238.22468757 271.86884087 -247.09277344 263.37841797 C-248.37512556 262.15198993 -249.67008598 260.93877544 -250.96679688 259.72753906 C-276.4404998 235.29635423 -292.13921094 201.29324283 -298.53710938 166.99707031 C-298.73626953 165.9497876 -298.73626953 165.9497876 -298.93945312 164.88134766 C-305.45531393 128.61399323 -299.68557462 89.86260873 -283.53710938 56.99707031 C-283.16070312 56.21589844 -282.78429687 55.43472656 -282.39648438 54.62988281 C-274.51768897 38.39956428 -264.5111018 24.43894855 -251.97314453 11.484375 C-250.46345725 9.92078865 -248.97574523 8.33777011 -247.48632812 6.75488281 C-185.50272367 -58.14211344 -77.86836709 -61.19683262 0 0 Z " fill="#FEC42C" transform="translate(633.537109375,486.0029296875)"/>
<path d="M0 0 C1.14111575 -0.00397774 1.14111575 -0.00397774 2.30528435 -0.00803584 C4.86319664 -0.01571623 7.42106083 -0.01628753 9.97898388 -0.01688576 C11.82805717 -0.02090123 13.67712959 -0.02533959 15.52620095 -0.03016531 C20.61472196 -0.04212754 25.70323349 -0.04777847 30.79176581 -0.05234647 C36.27738575 -0.05830399 41.76299438 -0.06991357 47.24860668 -0.08063698 C60.50144057 -0.10515913 73.7542782 -0.11978869 87.00712779 -0.13269705 C90.75106926 -0.13640938 94.49501035 -0.14038259 98.23895144 -0.14444971 C121.49311113 -0.16968871 144.74727161 -0.19175578 168.00144196 -0.20417786 C173.38785142 -0.20709903 178.77426087 -0.21006658 184.16067028 -0.21308327 C184.82984292 -0.21345418 185.49901555 -0.21382509 186.18846615 -0.21420723 C207.86906851 -0.22635411 229.54958953 -0.25728437 251.23015371 -0.29900479 C274.16501263 -0.34305813 297.09983873 -0.3687183 320.03474301 -0.37409842 C332.53142379 -0.3775095 345.02797629 -0.38922892 357.5246172 -0.42220116 C368.16964733 -0.45024198 378.81452288 -0.46118328 389.45958707 -0.4500057 C394.88741677 -0.44482927 400.31492293 -0.44763994 405.74270535 -0.47247124 C410.72054526 -0.49505315 415.69783092 -0.49415459 420.67568114 -0.47526737 C422.46787137 -0.47247985 424.26009992 -0.47799569 426.05222885 -0.4930803 C447.17410703 -0.65986608 464.40237329 5.53286892 479.71804333 20.46513939 C480.60362926 21.34685814 481.4892152 22.22857689 482.40163708 23.13701439 C483.07066051 23.77123314 483.73968395 24.40545189 484.42898083 25.05888939 C488.44777218 29.1779227 491.04944462 33.86692159 493.65163708 38.94951439 C493.98131481 39.58913109 494.31099255 40.22874779 494.65066051 40.88774681 C498.97190896 49.74807532 500.85569007 58.60052815 500.78754044 68.42024899 C500.79279955 69.3983634 500.79805866 70.37647782 500.80347714 71.38423207 C500.81737809 74.6455891 500.81008151 77.90654021 500.80277538 81.16791344 C500.80838332 83.5363421 500.81528688 85.90476798 500.82337135 88.27318949 C500.83978104 94.08929323 500.84227707 99.90528579 500.83878879 105.72140893 C500.8353709 112.69230595 500.84932227 119.66314169 500.86362689 126.63402101 C500.89260661 141.08657589 500.90107811 155.5390988 500.90279806 169.99167932 C500.90417798 181.15593326 500.91035971 192.32017471 500.91989994 203.48442459 C500.92259268 206.70090672 500.92526212 209.91738887 500.92792457 213.13387102 C500.92858772 213.93355816 500.92925086 214.73324531 500.9299341 215.55716539 C500.9483914 238.04474633 500.96023635 260.53232292 500.95890427 283.01991177 C500.95885753 283.86737631 500.95881079 284.71484085 500.95876264 285.58798613 C500.95851333 289.88303955 500.95821621 294.17809297 500.95790852 298.47314639 C500.95781877 299.75260591 500.95781877 299.75260591 500.9577272 301.05791311 C500.95760589 302.78283242 500.95748049 304.50775173 500.95735102 306.23267104 C500.95551337 333.06077894 500.97802352 359.88877303 501.01906872 386.71684837 C501.06519284 416.87685999 501.09096485 447.03679684 501.08817905 477.19684595 C501.08795517 480.41552858 501.08780904 483.6342112 501.0877161 486.85289383 C501.08768114 487.64538024 501.08764618 488.43786665 501.08761015 489.25436779 C501.087518 501.98431594 501.10664126 514.71416495 501.1325129 527.44408366 C501.15799626 540.24818834 501.16087033 553.05214865 501.14118493 565.85626472 C501.13110256 572.78712853 501.13038628 579.71766631 501.15724468 586.64849472 C501.18089054 593.00171814 501.1764948 599.35430121 501.15039229 605.70750933 C501.14579836 607.9975289 501.15119408 610.28759665 501.16797251 612.57755936 C501.32334002 635.29968925 496.56974262 652.93037727 480.71023083 669.85967064 C466.44666346 683.93016095 448.76103093 691.31478659 428.7133522 691.27123547 C427.59410052 691.27476381 427.59410052 691.27476381 426.4522377 691.27836344 C423.95595028 691.28501186 421.45971541 691.28459648 418.96341991 691.28418541 C417.15386865 691.28748662 415.34431812 691.29121273 413.53476852 691.29532689 C408.5647802 691.30532566 403.59480395 691.30906026 398.624807 691.3117162 C393.2632872 691.31562554 387.9017769 691.3252034 382.54026318 691.33392906 C369.59378951 691.35367524 356.64731509 691.36375714 343.70083013 691.37265685 C337.60069615 691.3770426 331.50056303 691.38240865 325.40042973 691.38764572 C305.11664955 691.40465582 284.83286992 691.41914953 264.54908371 691.42639446 C259.2874511 691.42830428 254.0258185 691.43022463 248.76418591 691.4321804 C247.45647088 691.43266414 246.14875586 691.43314789 244.80141311 691.43364628 C223.62183293 691.44194491 202.44230925 691.46728001 181.26275373 691.49976108 C159.50745499 691.53285254 137.75218496 691.5508451 115.99686092 691.5540387 C103.78639402 691.55620181 91.57600954 691.56492145 79.36556721 691.59049988 C68.96580357 691.61223531 58.56614238 691.62024325 48.1663586 691.6105331 C42.86412499 691.60599674 37.56210264 691.60783608 32.25989819 691.62729454 C27.39692553 691.64498628 22.53431731 691.64387991 17.67134046 691.62839725 C15.92093567 691.62603029 14.17050524 691.63029687 12.4201395 691.6422259 C-9.43258031 691.78181752 -28.13603251 686.10475284 -44.59836292 671.13701439 C-61.87689056 653.69899266 -66.21701099 632.83317034 -66.11493199 609.13763427 C-66.109862 608.04490392 -66.104792 606.95217357 -66.09956837 605.82633018 C-66.1034668 603.48857125 -66.10911158 601.15081469 -66.11633927 598.81306368 C-66.13103359 592.42479639 -66.12094839 586.0367771 -66.10660255 579.64851797 C-66.09463706 573.45537604 -66.10548002 567.26225051 -66.11372649 561.06910933 C-66.13087341 547.62955618 -66.12540639 534.19008488 -66.1103693 520.75053346 C-66.0972959 508.98969537 -66.09212572 497.22888562 -66.09468746 485.46804047 C-66.09484788 484.68664489 -66.09500829 483.90524932 -66.09517357 483.1001751 C-66.0958372 479.92791255 -66.09653962 476.75565002 -66.09729891 473.5833875 C-66.10431611 443.85171957 -66.08885439 414.12010151 -66.06267545 384.38844627 C-66.03955974 357.99594486 -66.03417379 331.60349825 -66.04440784 305.210989 C-66.04701003 298.45122562 -66.0495951 291.69146225 -66.05200577 284.9316988 C-66.05230322 284.09939072 -66.05260066 283.26708265 -66.05290712 282.40955311 C-66.06052822 260.32978962 -66.05410432 238.25003058 -66.04330975 216.17026907 C-66.04216199 213.7934482 -66.04101881 211.41662732 -66.03988292 209.03980645 C-66.03912768 207.4632135 -66.03836203 205.88662057 -66.03758592 204.31002763 C-66.03193646 192.55828483 -66.03325152 180.80655623 -66.03781414 169.05481339 C-66.04293008 155.68826088 -66.03703291 142.32176138 -66.01691984 128.95522206 C-66.00692489 122.13820205 -66.00192621 115.32127339 -66.00981236 108.50424767 C-66.0168893 102.2588584 -66.01001727 96.01364262 -65.99220873 89.76827616 C-65.98817733 87.51413159 -65.989142 85.2599711 -65.99572759 83.00583255 C-66.07598579 52.95284146 -66.07598579 52.95284146 -58.78586292 39.69951439 C-58.43257923 39.02976585 -58.07929554 38.36001732 -57.71530628 37.66997337 C-55.09254582 32.79930225 -52.30287345 28.26722662 -48.59836292 24.13701439 C-47.97832386 23.42545189 -47.3582848 22.71388939 -46.71945667 21.98076439 C-34.66309675 9.01407158 -17.89100727 -0.03042885 0 0 Z M-33.87570667 41.63310814 C-38.35276006 48.14057123 -41.71881481 56.28506575 -41.72716409 64.26729435 C-41.73043628 65.08856698 -41.73370848 65.90983961 -41.73707983 66.7559993 C-41.73559621 67.65464778 -41.73411258 68.55329627 -41.732584 69.47917652 C-41.73493623 70.44058177 -41.73728846 71.40198702 -41.73971197 72.39252576 C-41.74640991 75.63902646 -41.74594351 78.88548721 -41.74553394 82.13199425 C-41.74883208 84.47319349 -41.75255754 86.81439217 -41.75667542 89.15559012 C-41.76565579 94.93132762 -41.76992401 100.70705539 -41.77219439 106.48279912 C-41.77515568 113.39951677 -41.78385273 120.31622424 -41.79260867 127.23293655 C-41.81345822 143.95298271 -41.82392408 160.67303064 -41.83273828 177.39308677 C-41.83694448 185.30325371 -41.84216654 193.21341989 -41.84742281 201.1235862 C-41.86531437 228.20143717 -41.88030991 255.27928836 -41.887743 282.35714436 C-41.88821775 284.05730598 -41.88869364 285.75746761 -41.88917066 287.45762924 C-41.88940703 288.30075751 -41.88964341 289.14388578 -41.88988695 290.01256339 C-41.89108815 294.28427167 -41.8923036 298.55597994 -41.89352894 302.82768822 C-41.89376909 303.6754223 -41.89400924 304.52315638 -41.89425667 305.39657937 C-41.90214799 332.87653028 -41.92557569 360.35643801 -41.95808488 387.83637007 C-41.99239283 416.88984621 -42.01209508 445.94329708 -42.01538724 474.99679381 C-42.01580477 478.18713002 -42.01628434 481.37746623 -42.01681042 484.56780243 C-42.01693361 485.35335255 -42.0170568 486.13890268 -42.01718373 486.94825735 C-42.01951467 499.5837847 -42.03516887 512.21926186 -42.05565226 524.85477133 C-42.07592148 537.55991672 -42.0813824 550.26500191 -42.07188163 562.97016048 C-42.06712883 569.85168641 -42.06873126 576.73306388 -42.08864307 583.6145668 C-42.10624151 589.91710411 -42.10530356 596.21935949 -42.08974578 602.52189965 C-42.0873647 604.7992541 -42.0917191 607.07662791 -42.10357443 609.35395276 C-42.18946011 626.94476868 -41.11335787 640.83339482 -28.56711292 654.32060814 C-19.39604956 663.10954387 -7.68672372 668.47385956 5.06986046 668.39148998 C5.81384988 668.39469646 6.55783931 668.39790294 7.32437387 668.40120658 C9.81327604 668.40949703 12.30193697 668.40358566 14.79084301 668.3977108 C16.59499625 668.40073193 18.39914822 668.40462122 20.20329791 668.40930337 C25.15822649 668.41959731 30.11308282 668.41739796 35.06801736 668.41312277 C40.41310336 668.41065804 45.75817185 668.41966666 51.10325146 668.42716026 C61.57460221 668.43991707 72.04592732 668.44169967 82.51728453 668.43936 C91.0296041 668.4375775 99.54191587 668.43932503 108.0542345 668.44358444 C109.26542962 668.44417963 110.47662474 668.44477482 111.72452274 668.44538805 C114.18504923 668.44659979 116.64557572 668.44781393 119.10610221 668.44903042 C142.18812273 668.45991009 165.27012865 668.45774166 188.35215 668.45164558 C209.46329203 668.44647807 230.57438789 668.45772671 251.68552079 668.47674379 C273.36396261 668.49612211 295.04238259 668.50437807 316.72083312 668.50062054 C328.89091054 668.49870823 341.06094867 668.50119887 353.23101902 668.51533508 C363.5935607 668.52724987 373.95603893 668.52865276 384.31858148 668.51654492 C389.60407848 668.51065648 394.88945943 668.50955584 400.17494869 668.52154732 C405.01792838 668.53240694 409.86069515 668.52930168 414.70366488 668.51528563 C416.45130216 668.5126389 418.19895613 668.51500447 419.94657703 668.5230215 C437.51561734 668.59799311 451.51326253 665.79954278 464.77663708 653.44951439 C474.55910595 643.1008576 477.72386145 631.12364863 477.65890598 617.25769997 C477.66416509 615.81960106 477.66416509 615.81960106 477.66953045 614.35244966 C477.67882224 611.14510186 477.67392682 607.93793652 477.66906261 604.73058128 C477.67279998 602.40568988 477.67740185 600.08079974 477.68279326 597.75591159 C477.69502784 591.37084168 477.69476224 584.98582416 477.69240451 578.6007452 C477.6910664 572.4205737 477.70102054 566.24041477 477.70963029 560.06025079 C477.72896063 545.8600264 477.73459814 531.65981646 477.7357444 517.45958045 C477.73666388 506.49260718 477.74078261 495.52563957 477.74714565 484.55866814 C477.74894077 481.40056062 477.7507204 478.2424531 477.75249541 475.08434558 C477.7529375 474.29920649 477.7533796 473.5140674 477.75383509 472.70513622 C477.76614149 450.62408623 477.77403642 428.5430382 477.77314854 406.46198463 C477.77311738 405.62967343 477.77308622 404.79736223 477.77305412 403.93982947 C477.77288791 399.72143663 477.77268983 395.50304379 477.7724847 391.28465095 C477.77244481 390.4468796 477.77240492 389.60910826 477.77236382 388.7459499 C477.77228295 387.05177257 477.77219935 385.35759523 477.77211304 383.6634179 C477.77088757 357.30563634 477.78590079 330.94790623 477.81325817 304.59013939 C477.84398942 274.96966015 477.86119005 245.34921471 477.85933173 215.72871852 C477.85918247 212.56935358 477.85908505 209.40998864 477.85902309 206.2506237 C477.85899979 205.47272183 477.85897648 204.69481997 477.85895246 203.89334531 C477.85889096 191.38362358 477.87165387 178.87394658 477.88888762 166.36423814 C477.90585383 153.78852244 477.9078102 141.21287209 477.89466898 128.63715127 C477.88793545 121.82647039 477.8880406 115.01596105 477.90537548 108.20529366 C477.92108839 101.96771446 477.9182603 95.73042576 477.90080722 89.49285373 C477.89773347 87.23920386 477.90138376 84.98553241 477.91252737 82.73190799 C477.99680811 64.47481762 476.21314531 49.54455034 463.40163708 35.44951439 C450.08871243 22.78764339 434.10796425 21.83567415 416.74778271 21.86285973 C414.95142733 21.85840284 413.15507391 21.85308731 411.35872334 21.846991 C406.43917461 21.83285498 401.51968918 21.83114687 396.60012305 21.83158791 C391.2877473 21.82993584 385.97539734 21.81686215 380.66303539 21.80539513 C369.05555292 21.78257743 357.44808876 21.7746282 345.8405869 21.76956868 C338.58891767 21.76630832 331.33725373 21.75978385 324.0855875 21.75256729 C303.99555444 21.73300666 283.90552629 21.71659895 263.81548309 21.71369076 C262.53072923 21.71350319 261.24597536 21.71331562 259.92228956 21.71312236 C257.31795959 21.71275612 254.71362961 21.71239242 252.10929964 21.71203125 C250.81656445 21.71184844 249.52382926 21.71166563 248.19192028 21.71147728 C246.25044273 21.71120646 246.25044273 21.71120646 244.26974341 21.71093016 C223.2965882 21.7073884 202.32353565 21.68036343 181.35041604 21.64297939 C159.80181506 21.60487781 138.25326501 21.58553315 116.7046296 21.58523124 C104.61215425 21.58464715 92.51980143 21.57618531 80.42735767 21.54723358 C70.13118875 21.52269518 59.83518707 21.51545361 49.53899679 21.53048111 C44.28948086 21.53763947 39.04029502 21.53683856 33.79081631 21.51407051 C28.97728445 21.49339388 24.16433467 21.49616165 19.35080852 21.51694535 C17.61733483 21.52042364 15.88381838 21.51560137 14.15040068 21.50124092 C-5.13252064 21.35189524 -20.94834844 26.36980017 -33.87570667 41.63310814 Z " fill="#39150B" transform="translate(295.59836292266846,173.8629856109619)"/>
<path d="M0 0 C34.0966024 30.0231145 57.19021725 73.48343558 60.46289062 118.99707031 C63.02841148 168.62428847 49.62055253 215.30747884 16.46289062 252.99707031 C15.6353125 253.95742188 14.80773437 254.91777344 13.95507812 255.90722656 C-10.88580798 284.235841 -45.40836089 302.27032022 -81.78710938 310.74707031 C-82.6859082 310.95807373 -83.58470703 311.16907715 -84.51074219 311.38647461 C-129.46439731 321.41504084 -180.08834725 310.6421684 -218.74804688 286.48925781 C-229.07382664 279.80541553 -238.22468757 271.86884087 -247.09277344 263.37841797 C-248.37512556 262.15198993 -249.67008598 260.93877544 -250.96679688 259.72753906 C-276.4404998 235.29635423 -292.13921094 201.29324283 -298.53710938 166.99707031 C-298.73626953 165.9497876 -298.73626953 165.9497876 -298.93945312 164.88134766 C-305.45531393 128.61399323 -299.68557462 89.86260873 -283.53710938 56.99707031 C-283.16070312 56.21589844 -282.78429687 55.43472656 -282.39648438 54.62988281 C-274.51768897 38.39956428 -264.5111018 24.43894855 -251.97314453 11.484375 C-250.46345725 9.92078865 -248.97574523 8.33777011 -247.48632812 6.75488281 C-185.50272367 -58.14211344 -77.86836709 -61.19683262 0 0 Z M-242.23144531 36.01660156 C-245.55189562 40.19806454 -248.59675851 44.54237031 -251.53710938 48.99707031 C-252.26285156 50.08503906 -252.98859375 51.17300781 -253.73632812 52.29394531 C-269.7854965 77.36121782 -277.01006889 105.69449228 -276.84960938 135.30957031 C-276.84745422 136.03107269 -276.84529907 136.75257507 -276.84307861 137.49594116 C-276.79016737 148.56463613 -276.31696292 159.23981135 -273.53710938 169.99707031 C-273.33843262 170.78259277 -273.13975586 171.56811523 -272.93505859 172.37744141 C-266.60066262 196.73283806 -255.57685758 217.70610777 -239.53710938 236.99707031 C-238.88613281 237.79113281 -238.23515625 238.58519531 -237.56445312 239.40332031 C-233.60792997 244.08986254 -229.2584659 248.09270626 -224.53710938 251.99707031 C-223.79847656 252.62355469 -223.05984375 253.25003906 -222.29882812 253.89550781 C-200.75166629 271.73980223 -175.66529511 282.09117342 -148.53710938 287.99707031 C-146.85488281 288.37025391 -146.85488281 288.37025391 -145.13867188 288.75097656 C-114.65887459 294.24041109 -81.45416616 289.01219472 -53.53710938 275.99707031 C-52.46847656 275.52011719 -51.39984375 275.04316406 -50.29882812 274.55175781 C-37.09419181 268.36068258 -25.1408479 259.87462284 -14.53710938 249.87988281 C-12.8591437 248.30023544 -11.15872242 246.85736234 -9.34960938 245.43457031 C-5.67115294 242.24657474 -2.62303682 238.75385155 0.46289062 234.99707031 C1.23890625 234.05863281 2.01492188 233.12019531 2.81445312 232.15332031 C29.96738701 198.549572 40.16655745 156.35042777 35.77539062 113.74707031 C32.55253452 86.92391349 21.07845798 61.18513877 4.46289062 39.99707031 C3.77710938 39.10761719 3.09132813 38.21816406 2.38476562 37.30175781 C-22.50506501 5.87610834 -58.3553333 -14.18518863 -98.00790405 -19.71304321 C-104.75320837 -20.48616055 -111.53203512 -20.48276705 -118.31347656 -20.44897461 C-120.90445418 -20.44045486 -123.49322138 -20.4693998 -126.08398438 -20.50097656 C-171.03367107 -20.68746227 -213.62778524 1.92301711 -242.23144531 36.01660156 Z " fill="#3A160B" transform="translate(633.537109375,486.0029296875)"/>
<path d="M0 0 C2.60594207 1.40985538 3.33720034 2.47500792 5 5 C5.495 5.495 5.495 5.495 6 6 C6.08748207 7.92667507 6.10697334 9.85651861 6.09765625 11.78515625 C6.09282227 13.53989258 6.09282227 13.53989258 6.08789062 15.33007812 C6.07532227 17.17762695 6.07532227 17.17762695 6.0625 19.0625 C6.05798828 20.29806641 6.05347656 21.53363281 6.04882812 22.80664062 C6.03699608 25.87114117 6.02051173 28.93554721 6 32 C6.95519531 32.09796875 7.91039062 32.1959375 8.89453125 32.296875 C23.25481561 33.95768555 37.22329139 37.67165754 46.9375 49.25 C54.10242159 59.28432665 56.4952935 71.77479944 54.5390625 83.84375 C52.12967661 93.93482501 47.09198729 100.68824991 39 107 C41.84488504 108.89659002 44.58630957 110.2034556 47.6875 111.625 C56.35145975 115.94126532 62.67590249 121.78000323 66 131 C69.69676988 142.70643794 68.67371978 155.55750935 63.78125 166.80078125 C55.86720581 180.93614352 43.04409359 188.63460294 27.80688477 192.97338867 C20.08497728 195.01233523 12.97648346 195.16372902 5 195 C5.01571045 195.76666992 5.0314209 196.53333984 5.04760742 197.32324219 C5.10998974 200.79875302 5.14900162 204.27414601 5.1875 207.75 C5.21263672 208.9565625 5.23777344 210.163125 5.26367188 211.40625 C5.27333984 212.56640625 5.28300781 213.7265625 5.29296875 214.921875 C5.3086792 215.99018555 5.32438965 217.05849609 5.34057617 218.15917969 C4.95396812 221.38396195 4.27031201 222.71142455 2 225 C-1.42633885 226.14211295 -4.26497411 226.27578153 -7.875 226.375 C-9.08929687 226.42398438 -10.30359375 226.47296875 -11.5546875 226.5234375 C-15 226 -15 226 -17.92578125 224.30859375 C-21.23171404 219.03528852 -20.52506242 213.7667851 -20.3125 207.6875 C-20.28994141 206.46998047 -20.26738281 205.25246094 -20.24414062 203.99804688 C-20.18531952 200.99817071 -20.09564264 197.99892804 -20 195 C-23.96 195 -27.92 195 -32 195 C-31.89558594 197.72830078 -31.89558594 197.72830078 -31.7890625 200.51171875 C-31.73278273 202.9036089 -31.67818283 205.29553899 -31.625 207.6875 C-31.57472656 208.88568359 -31.52445312 210.08386719 -31.47265625 211.31835938 C-31.33052101 219.82278433 -31.33052101 219.82278433 -33.09643555 222.92797852 C-36.78084003 226.395908 -40.72079601 226.64555648 -45.5625 226.5625 C-46.84253906 226.56378906 -48.12257813 226.56507813 -49.44140625 226.56640625 C-53.4724629 225.92480009 -55.13871854 224.85062492 -58 222 C-59.3308911 219.33821779 -59.11268993 217.31260604 -59.09765625 214.3359375 C-59.09443359 213.21445312 -59.09121094 212.09296875 -59.08789062 210.9375 C-59.07532227 209.1740625 -59.07532227 209.1740625 -59.0625 207.375 C-59.05798828 206.19164062 -59.05347656 205.00828125 -59.04882812 203.7890625 C-59.03701467 200.85932493 -59.02054258 197.92968728 -59 195 C-60.65769409 194.98598145 -60.65769409 194.98598145 -62.34887695 194.97167969 C-66.4474322 194.93182019 -70.54523358 194.86607363 -74.64331055 194.79248047 C-76.41730061 194.76424721 -78.19141701 194.74304437 -79.96557617 194.72900391 C-82.51547032 194.70760619 -85.06384166 194.66097565 -87.61328125 194.609375 C-88.40712723 194.60814636 -89.20097321 194.60691772 -90.01887512 194.60565186 C-95.47852382 194.46027605 -95.47852382 194.46027605 -97.99707031 192.23730469 C-99.7292751 188.37315555 -99.47212106 184.67341102 -99.4375 180.5 C-99.45748047 179.64535156 -99.47746094 178.79070312 -99.49804688 177.91015625 C-99.49516245 174.21232447 -99.39261505 171.70263076 -97.5703125 168.44140625 C-93.64065087 166.23769023 -89.87159491 166.4408264 -85.4375 166.4375 C-83.72774465 166.42856177 -82.01799633 166.40695534 -80.30859375 166.37109375 C-79.55376709 166.37036865 -78.79894043 166.36964355 -78.02124023 166.36889648 C-75.40689688 165.89175277 -74.6505586 165.05589649 -73 163 C-72.55151824 161.00522318 -72.55151824 161.00522318 -72.61904907 158.78038025 C-72.6105896 157.92090286 -72.60213013 157.06142548 -72.59341431 156.17590332 C-72.599487 155.23605591 -72.60555969 154.2962085 -72.61181641 153.32788086 C-72.60655945 152.33579117 -72.60130249 151.34370148 -72.59588623 150.32154846 C-72.58266099 147.03582101 -72.59143276 143.75057629 -72.6015625 140.46484375 C-72.59954266 138.18705655 -72.59663197 135.90926997 -72.59286499 133.63148499 C-72.58843834 128.85574187 -72.59488439 124.08016695 -72.60888672 119.30444336 C-72.62598832 113.17158356 -72.61613316 107.03911732 -72.59816933 100.90627193 C-72.58734905 96.20265211 -72.5907696 91.49912621 -72.5985527 86.79550362 C-72.60055907 84.53358476 -72.59808023 82.27165748 -72.59111404 80.00974846 C-72.58352745 76.85384268 -72.59506433 73.69858211 -72.61181641 70.54272461 C-72.60574371 69.60085297 -72.59967102 68.65898132 -72.59341431 67.68856812 C-72.60187378 66.83191055 -72.61033325 65.97525299 -72.61904907 65.09263611 C-72.62074569 63.97297156 -72.62074569 63.97297156 -72.62247658 62.83068752 C-72.86215607 60.58426718 -72.86215607 60.58426718 -76 59 C-78.07576653 58.68355881 -78.07576653 58.68355881 -80.34375 58.69140625 C-81.17777344 58.66626953 -82.01179688 58.64113281 -82.87109375 58.61523438 C-84.62362394 58.58007961 -86.3762368 58.54882914 -88.12890625 58.52148438 C-88.96292969 58.49505859 -89.79695313 58.46863281 -90.65625 58.44140625 C-91.41744141 58.42795166 -92.17863281 58.41449707 -92.96289062 58.40063477 C-95.58042648 57.88584853 -96.45711382 57.16346661 -98 55 C-98.38818359 52.87109375 -98.38818359 52.87109375 -98.3984375 50.4375 C-98.40230469 49.55835938 -98.40617187 48.67921875 -98.41015625 47.7734375 C-98.39855469 46.85820313 -98.38695312 45.94296875 -98.375 45 C-98.39240234 43.62714844 -98.39240234 43.62714844 -98.41015625 42.2265625 C-98.40435547 40.90785156 -98.40435547 40.90785156 -98.3984375 39.5625 C-98.39336182 38.35787109 -98.39336182 38.35787109 -98.38818359 37.12890625 C-98 35 -98 35 -96.99926758 33.24682617 C-93.77447558 31.23571215 -90.30460174 31.51799388 -86.61328125 31.48828125 C-85.79627243 31.47033005 -84.97926361 31.45237885 -84.13749695 31.43388367 C-81.52921706 31.37972212 -78.92112075 31.34586692 -76.3125 31.3125 C-74.54359421 31.27933201 -72.77471267 31.24484283 -71.00585938 31.20898438 C-66.67070527 31.12399254 -62.33560616 31.05720965 -58 31 C-58.02094727 30.23333008 -58.04189453 29.46666016 -58.06347656 28.67675781 C-58.14665158 25.2013054 -58.19866575 21.72606237 -58.25 18.25 C-58.28351563 17.0434375 -58.31703125 15.836875 -58.3515625 14.59375 C-58.36445313 13.43359375 -58.37734375 12.2734375 -58.390625 11.078125 C-58.41157227 10.00981445 -58.43251953 8.94150391 -58.45410156 7.84082031 C-57.88372591 4.27259928 -56.88001379 3.12826859 -54 1 C-51.95703125 0.48242188 -51.95703125 0.48242188 -49.8125 0.46875 C-48.64074219 0.46101563 -48.64074219 0.46101563 -47.4453125 0.453125 C-46.23488281 0.47632813 -46.23488281 0.47632813 -45 0.5 C-44.19304687 0.48453125 -43.38609375 0.4690625 -42.5546875 0.453125 C-38.67025346 0.47876483 -36.656315 0.49955981 -33.5 2.90625 C-31.04822586 6.32851808 -30.88032337 8.26144012 -30.90234375 12.4453125 C-30.90717773 14.05986328 -30.90717773 14.05986328 -30.91210938 15.70703125 C-30.92467773 17.39892578 -30.92467773 17.39892578 -30.9375 19.125 C-30.94201172 20.26066406 -30.94652344 21.39632812 -30.95117188 22.56640625 C-30.96298372 25.37762647 -30.98091959 28.18881972 -31 31 C-27.37 31 -23.74 31 -20 31 C-20.04640625 29.25332031 -20.0928125 27.50664063 -20.140625 25.70703125 C-20.17814598 23.40887127 -20.21454579 21.11069279 -20.25 18.8125 C-20.28351563 17.66201172 -20.31703125 16.51152344 -20.3515625 15.32617188 C-20.37089844 13.65844727 -20.37089844 13.65844727 -20.390625 11.95703125 C-20.4220459 10.42526245 -20.4220459 10.42526245 -20.45410156 8.86254883 C-19.88121902 5.25123283 -18.50385825 3.61065927 -16 1 C-11.3433043 -1.32834785 -5.05414647 -0.54402271 0 0 Z " fill="#3B150B" transform="translate(529,506)"/>
<path d="M0 0 C1.05960938 -0.020625 2.11921875 -0.04125 3.2109375 -0.0625 C9.60972752 -0.09425578 14.52057661 0.29536462 20.25 3.25 C23.73648885 6.9392403 25.5006634 10.85028553 27.15625 15.57421875 C27.41055786 16.2763298 27.66486572 16.97844086 27.92687988 17.701828 C28.71219373 19.88083061 29.48274717 22.06458011 30.25 24.25 C30.48154785 24.9029303 30.7130957 25.5558606 30.95166016 26.22857666 C32.58246771 30.82925878 34.1723117 35.44336958 35.75 40.0625 C35.99989685 40.79189789 36.2497937 41.52129578 36.50726318 42.27279663 C41.54174106 56.98117261 46.37157268 71.75505002 51.14697266 86.54931641 C53.82587587 94.84285732 56.5252384 103.12521594 59.359375 111.3671875 C59.83448617 112.75674994 60.30958425 114.14631685 60.78466797 115.53588867 C61.64560242 118.05157055 62.52141994 120.56023679 63.40673828 123.06762695 C65.44355991 129.01218315 66.95467969 133.95192523 66.25 140.25 C64.37984906 142.68119623 62.96861655 143.89069173 60.25 145.25 C56.15195531 145.54695976 52.0450376 145.52806005 47.9375 145.5625 C46.79603516 145.59150391 45.65457031 145.62050781 44.47851562 145.65039062 C36.33747102 145.71224543 36.33747102 145.71224543 32.2265625 143.96484375 C29.02352224 139.56541098 27.58252126 134.64696843 25.9375 129.5 C24.1121875 123.93125 24.1121875 123.93125 22.25 118.25 C7.4 118.25 -7.45 118.25 -22.75 118.25 C-25.06 125.18 -27.37 132.11 -29.75 139.25 C-33.75 144.25 -33.75 144.25 -35.75 145.25 C-39.68233643 145.49298891 -43.6234991 145.43520321 -47.5625 145.4375 C-48.65626953 145.44974609 -49.75003906 145.46199219 -50.87695312 145.47460938 C-52.4634668 145.47750977 -52.4634668 145.47750977 -54.08203125 145.48046875 C-55.04858643 145.48457764 -56.0151416 145.48868652 -57.01098633 145.49291992 C-61.08564214 145.13154346 -63.84898815 144.15101185 -66.75 141.25 C-67.58010364 133.7894641 -65.20397729 127.51256385 -62.82421875 120.5078125 C-62.40401755 119.24223801 -61.9849177 117.97629739 -61.5668335 116.71002197 C-60.43834332 113.3016374 -59.2956008 109.89819367 -58.14997482 106.4955368 C-56.9546865 102.93800356 -55.77169878 99.37638892 -54.58813477 95.81494141 C-53.12251446 91.40635697 -51.65608702 86.99805604 -50.18431091 82.59152222 C-47.05073793 73.20398309 -43.96693729 63.80162912 -40.92864037 54.38283157 C-40.27233207 52.34891042 -39.61471707 50.31541676 -38.95661926 48.28207397 C-38.74372851 47.6242222 -38.53083776 46.96637043 -38.31149578 46.28858376 C-37.88840399 44.98122378 -37.46529388 43.67386974 -37.0421648 42.36652184 C-36.01550492 39.19248061 -34.99279157 36.01727919 -33.97494507 32.84039307 C-32.84454716 29.31529916 -31.70281798 25.79406334 -30.55859375 22.2734375 C-30.2302655 21.23882385 -29.90193726 20.20421021 -29.56365967 19.13824463 C-25.27928436 6.04806261 -25.27928436 6.04806261 -19.25 2.9375 C-12.82404375 -0.1607289 -7.0453677 0.03379073 0 0 Z " fill="#3A160B" transform="translate(518.75,264.75)"/>
<path d="M0 0 C1.6988736 -0.01925285 1.6988736 -0.01925285 3.43206787 -0.03889465 C4.66008118 -0.04628159 5.88809448 -0.05366852 7.15332031 -0.0612793 C9.05794037 -0.07338692 9.05794037 -0.07338692 11.0010376 -0.08573914 C13.69783168 -0.09958892 16.39450327 -0.1105995 19.09130859 -0.11816406 C21.83014632 -0.12695816 24.56846572 -0.14767127 27.30712891 -0.1796875 C49.06176897 -0.42847648 69.70579901 -0.44139715 86.48144531 15.61450195 C96.25914252 26.26808062 100.16159843 38.482214 99.94946289 52.91552734 C99.3781025 66.11080314 94.50256152 76.72842312 84.75097656 85.68481445 C70.29085002 97.26055644 54.7921392 99.52806421 36.85644531 99.30200195 C35.45671218 99.29194593 34.056972 99.28282475 32.65722656 99.2746582 C29.26511606 99.25126434 25.87337471 99.21848369 22.48144531 99.17700195 C22.50762939 100.39806641 22.53381348 101.61913086 22.56079102 102.87719727 C22.65132096 107.40940004 22.70870471 111.94152301 22.75610352 116.47436523 C22.78124135 118.43576498 22.81535697 120.39707112 22.85864258 122.3581543 C22.91932739 125.17821339 22.94766172 127.99703389 22.96972656 130.81762695 C23.0084362 132.13189667 23.0084362 132.13189667 23.04792786 133.47271729 C23.05070554 139.50792097 23.05070554 139.50792097 20.31225586 142.7265625 C15.35114689 145.26851579 10.45163089 144.7926409 4.98144531 144.73950195 C3.85351562 144.76334961 2.72558594 144.78719727 1.56347656 144.81176758 C0.47421875 144.80983398 -0.61503906 144.80790039 -1.73730469 144.8059082 C-3.22133789 144.80699585 -3.22133789 144.80699585 -4.73535156 144.80810547 C-7.68025166 144.14033646 -9.38210971 143.24746286 -11.46120262 141.0460043 C-13.90865355 136.71982793 -13.19597693 131.30412519 -13.1496582 126.47973633 C-13.15681351 125.18981277 -13.16396881 123.89988922 -13.17134094 122.57087708 C-13.18983696 119.03969573 -13.17692871 115.50927056 -13.15725064 111.9781208 C-13.14084746 108.2795539 -13.14967935 104.58103427 -13.1547699 100.88244629 C-13.15928902 94.67175233 -13.14343255 88.46135973 -13.11547852 82.25073242 C-13.08342715 75.07454494 -13.08344276 67.89890091 -13.10069329 60.72267485 C-13.11656761 53.81401487 -13.10981908 46.90555377 -13.09275627 39.99690247 C-13.085891 37.05917555 -13.08691275 34.12160831 -13.09430122 31.18388367 C-13.10339838 27.0803722 -13.0794093 22.97769748 -13.05200195 18.87426758 C-13.05852783 17.65645096 -13.06505371 16.43863434 -13.07177734 15.18391418 C-12.97848978 6.98210223 -12.97848978 6.98210223 -10.67271423 2.94592285 C-7.21372817 0.1055238 -4.32286966 0.04271654 0 0 Z " fill="#3A150B" transform="translate(348.5185546875,264.822998046875)"/>
<path d="M0 0 C2.07229211 -0.00436681 4.14244072 -0.04069138 6.21435547 -0.07861328 C8.18855469 -0.08441406 8.18855469 -0.08441406 10.20263672 -0.09033203 C11.40259277 -0.0985498 12.60254883 -0.10676758 13.83886719 -0.11523438 C17.96662898 0.47956982 20.02831478 1.69742059 23.21044922 4.37060547 C24.91040039 6.92236328 24.91040039 6.92236328 26.25341797 9.82373047 C26.76493408 10.9074292 27.2764502 11.99112793 27.8034668 13.10766602 C28.329646 14.26693604 28.8558252 15.42620605 29.39794922 16.62060547 C29.95313232 17.80887939 30.50831543 18.99715332 31.08032227 20.22143555 C32.52389159 23.31290166 33.94666166 26.41344694 35.36315918 29.51739502 C36.73278009 32.51305844 38.11727075 35.50184285 39.49951172 38.49169922 C42.09007193 44.10887477 44.65917856 49.73548349 47.21044922 55.37060547 C50.20899873 51.78463947 52.06275374 47.73592563 54.01123047 43.52685547 C54.37008835 42.76191772 54.72894623 41.99697998 55.09867859 41.2088623 C56.24443337 38.764776 57.38399732 36.31786835 58.52294922 33.87060547 C61.08017074 28.39469052 63.64662773 22.92331269 66.22955322 17.45947266 C67.13725483 15.52647659 68.0276599 13.58642541 68.91503906 11.64404297 C69.4185791 10.57412109 69.92211914 9.50419922 70.44091797 8.40185547 C70.86139404 7.48984375 71.28187012 6.57783203 71.71508789 5.63818359 C73.591983 2.79204453 75.08948079 1.73996489 78.21044922 0.37060547 C81.46850586 -0.01757812 81.46850586 -0.01757812 85.12060547 -0.02783203 C86.43996094 -0.03169922 87.75931641 -0.03556641 89.11865234 -0.03955078 C90.14164429 -0.03012451 90.14164429 -0.03012451 91.18530273 -0.02050781 C93.2705198 -0.00441328 95.35380679 -0.02039611 97.43896484 -0.03955078 C98.75703125 -0.03568359 100.07509766 -0.03181641 101.43310547 -0.02783203 C102.63717041 -0.02444824 103.84123535 -0.02106445 105.08178711 -0.01757812 C108.44662053 0.39990804 109.85333906 0.97204848 112.21044922 3.37060547 C113.43073884 9.2192793 110.29651036 13.55641716 107.46044922 18.43310547 C106.96383789 19.31015137 106.46722656 20.18719727 105.95556641 21.09082031 C104.38542215 23.85752278 102.79824988 26.6140071 101.21044922 29.37060547 C100.25080627 31.05866372 99.29243998 32.74744848 98.33544922 34.43701172 C92.16267399 45.31315496 85.89474457 56.13537321 79.63720703 66.96289062 C78.43810609 69.03820721 77.2526978 71.12149085 76.08056641 73.2121582 C74.21044922 76.37060547 74.21044922 76.37060547 72.00439453 79.40600586 C64.3750731 90.55284067 65.21570069 101.80773112 65.46044922 114.93310547 C65.49948817 118.21165415 65.5267706 121.48926823 65.53118896 124.76805115 C65.53600501 126.79382393 65.56158875 128.81968566 65.61090088 130.84486389 C65.64009177 135.2234733 65.64518266 137.66111199 63.31494141 141.46411133 C58.5973631 145.73784323 52.90809901 144.63238735 46.83544922 144.68310547 C45.68560547 144.71210938 44.53576172 144.74111328 43.35107422 144.77099609 C42.24505859 144.779375 41.13904297 144.78775391 39.99951172 144.79638672 C38.47898193 144.8182605 38.47898193 144.8182605 36.92773438 144.84057617 C33.50095203 144.24789369 32.36865957 143.03351359 30.21044922 140.37060547 C29.03406954 138.0178461 29.14675001 136.8087118 29.2590332 134.19750977 C29.29003113 133.32923553 29.32102905 132.4609613 29.35296631 131.56637573 C29.38714661 130.61876373 29.4213269 129.67115173 29.45654297 128.69482422 C30.05783805 103.46649537 29.06171346 85.14824186 14.27148438 64.328125 C11.2118075 59.93758654 8.66854495 55.30110561 6.08544922 50.62060547 C5.13788423 48.96526412 4.18734333 47.31162284 3.23388672 45.65966797 C-0.92575308 38.40746275 -4.99493633 31.10440537 -9.07128906 23.80517578 C-9.62800293 22.8084082 -10.1847168 21.81164062 -10.75830078 20.78466797 C-11.28037109 19.8461499 -11.80244141 18.90763184 -12.34033203 17.94067383 C-13.59174773 15.72139266 -14.88628395 13.53618684 -16.19580078 11.35107422 C-17.78955078 8.37060547 -17.78955078 8.37060547 -17.78955078 5.05810547 C-16.78955078 2.37060547 -16.78955078 2.37060547 -15.1484375 1.22363281 C-10.33625804 -0.51656125 -5.06200082 -0.00119584 0 0 Z " fill="#3A150B" transform="translate(590.78955078125,264.62939453125)"/>
<path d="M0 0 C5.8575 -0.061875 11.715 -0.12375 17.75 -0.1875 C20.48361816 -0.22846802 20.48361816 -0.22846802 23.27246094 -0.27026367 C46.21160329 -0.47013721 46.21160329 -0.47013721 55 7 C59.24907814 11.82327789 60.16883217 14.33774109 60.25 20.75 C60.27578125 21.96171875 60.3015625 23.1734375 60.328125 24.421875 C59.83842935 29.76188948 57.90931866 33.71347562 53.8125 37.1875 C46.11235389 43.39310298 37.15153617 44.16352353 27.5390625 44.09765625 C26.83740967 44.09664917 26.13575684 44.09564209 25.4128418 44.09460449 C22.81687767 44.089412 20.22093702 44.07545103 17.625 44.0625 C11.80875 44.041875 5.9925 44.02125 0 44 C0 29.48 0 14.96 0 0 Z " fill="#FDC52C" transform="translate(495,629)"/>
<path d="M0 0 C7.3940625 -0.061875 7.3940625 -0.061875 14.9375 -0.125 C16.47398193 -0.14320801 18.01046387 -0.16141602 19.59350586 -0.18017578 C39.53699501 -0.26075554 39.53699501 -0.26075554 47 7 C50.57959282 11.96524166 50.81229766 17.08574289 50 23 C48.68312284 27.34495063 46.82957148 30.23264638 43.5 33.3125 C33.7502727 38.01326138 23.9031082 38.40261816 13.25 38.1875 C8.8775 38.125625 4.505 38.06375 0 38 C0 25.46 0 12.92 0 0 Z " fill="#FDC62C" transform="translate(495,567)"/>
<path d="M0 0 C2.02717352 3.04076027 2.25004611 3.60553455 2.25069833 7.01232678 C2.25570536 7.83273718 2.2607124 8.65314758 2.26587117 9.4984189 C2.26118883 10.40123437 2.2565065 11.30404985 2.25168228 12.23422337 C2.25458916 13.19608196 2.25749604 14.15794055 2.26049101 15.14894637 C2.2678455 18.40295368 2.26082237 21.65677563 2.25396729 24.91078186 C2.25626956 27.25483324 2.25944451 29.59888389 2.26342177 31.94293302 C2.27092923 37.72926147 2.26906445 43.51553502 2.26332024 49.30186426 C2.25695845 56.22990553 2.26216332 63.15792559 2.26774407 70.0859658 C2.27829139 83.66072181 2.27735651 97.23545903 2.27158624 110.81021685 C2.26656153 122.6888581 2.26523874 134.56749246 2.26763153 146.44613457 C2.2677843 147.23308307 2.26793707 148.02003157 2.26809447 148.830827 C2.26871711 152.02503665 2.26935391 155.21924629 2.270014 158.41345593 C2.27613624 188.39624641 2.27057825 218.37902489 2.2598202 248.36181352 C2.2503276 275.02059369 2.25117854 301.67935476 2.26074219 328.33813477 C2.27144279 358.26646465 2.27570303 388.19478394 2.26951766 418.12311548 C2.26887619 421.31130405 2.26825051 424.49949262 2.26763153 427.6876812 C2.2673943 428.86526389 2.2673943 428.86526389 2.26715227 430.06663613 C2.26487384 441.94074415 2.26754434 453.81484453 2.27259064 465.68895149 C2.27829736 479.18463525 2.27690472 492.68029722 2.26602915 506.17597825 C2.26065876 513.06824068 2.25848876 519.96046764 2.26532745 526.8527298 C2.27125204 533.15219845 2.26807004 539.45159188 2.25737235 545.75105362 C2.25512341 548.03967813 2.25630765 550.32830888 2.26112393 552.61692942 C2.26713507 555.7085848 2.26103983 558.79997658 2.25168228 561.89161777 C2.25636461 562.79677442 2.26104695 563.70193106 2.26587117 564.63451669 C2.22830075 570.77169925 2.22830075 570.77169925 0 573 C-1.35156978 568.94529065 -1.13685172 565.03079039 -1.12584114 560.802598 C-1.12729458 559.84471535 -1.12874802 558.88683269 -1.13024551 557.89992329 C-1.13392264 554.65946797 -1.13041116 551.41905918 -1.12698364 548.17860413 C-1.12813478 545.84422848 -1.12972226 543.50985301 -1.13171089 541.17547792 C-1.1354646 535.41302789 -1.13453221 529.65059164 -1.13166012 523.88814141 C-1.12847919 516.98857297 -1.1310817 510.08900986 -1.13387203 503.1894417 C-1.13914583 489.6699074 -1.13867816 476.15037782 -1.13579312 462.63084307 C-1.13328059 450.79926371 -1.13261945 438.96768607 -1.13381577 427.13610649 C-1.13389215 426.35222093 -1.13396854 425.56833537 -1.13404724 424.7606957 C-1.13435856 421.57888243 -1.13467696 418.39706916 -1.135007 415.21525589 C-1.13806821 385.34763413 -1.13528909 355.48001538 -1.1299101 325.61239408 C-1.12516472 299.06101176 -1.12558848 272.50963423 -1.13037109 245.95825195 C-1.13572276 216.14783242 -1.13785067 186.33741555 -1.13475883 156.5269956 C-1.1344381 153.35056682 -1.13412526 150.17413805 -1.13381577 146.99770927 C-1.13373669 146.2155553 -1.13365761 145.43340132 -1.13357614 144.6275457 C-1.13243739 132.802402 -1.13377132 120.97726021 -1.13629532 109.15211678 C-1.13915027 95.70919716 -1.13844899 82.26628302 -1.13301457 68.82336409 C-1.13033142 61.95921651 -1.12924083 55.09507783 -1.13266373 48.23093033 C-1.13563006 41.95481621 -1.13402817 35.67872095 -1.12868617 29.40260857 C-1.12756344 27.124715 -1.12815002 24.84681986 -1.13056196 22.5689273 C-1.13357645 19.48700952 -1.13051039 16.40515741 -1.12584114 13.32324314 C-1.12818231 12.42654922 -1.13052347 11.5298553 -1.13293558 10.60598883 C-1.13043207 9.7864542 -1.12792855 8.96691956 -1.12534916 8.12255055 C-1.1252814 7.41756542 -1.12521365 6.7125803 -1.12514383 5.98623199 C-0.99294911 3.88809119 -0.57047259 2.01955886 0 0 Z " fill="#452716" transform="translate(231,233)"/>
<path d="M0 0 C1.01707031 -0.020625 2.03414063 -0.04125 3.08203125 -0.0625 C10.31265324 -0.09962771 17.34586749 0.27770743 23.15625 5.00390625 C23.5996875 5.60074219 24.043125 6.19757813 24.5 6.8125 C24.9640625 7.41191406 25.428125 8.01132812 25.90625 8.62890625 C29.38697619 13.78783971 28.49118177 20.26031116 28 26.25 C26.3125 29.875 26.3125 29.875 24 32.25 C23.29875 32.971875 22.5975 33.69375 21.875 34.4375 C12.19623838 40.53932798 0.11336758 40.24997582 -11 39.25 C-12.81565436 37.43434564 -12.12861899 34.93730038 -12.13894653 32.52111816 C-12.1369223 31.72008667 -12.13489807 30.91905518 -12.1328125 30.09375 C-12.13376923 29.27628296 -12.13472595 28.45881592 -12.13571167 27.61657715 C-12.13639345 25.88484622 -12.13453929 24.15311276 -12.13037109 22.42138672 C-12.12502279 19.76133518 -12.13031612 17.1014525 -12.13671875 14.44140625 C-12.13605797 12.76302046 -12.1347768 11.08463477 -12.1328125 9.40625 C-12.13483673 8.60521851 -12.13686096 7.80418701 -12.13894653 6.97888184 C-12.10046646 -2.02373448 -7.87804803 0.03876038 0 0 Z " fill="#FAF1DA" transform="translate(383,294.75)"/>
<path d="M0 0 C2.28290568 3.42435852 3.22621699 6.79018986 4.3125 10.703125 C4.52688721 11.45914001 4.74127441 12.21515503 4.9621582 12.99407959 C5.64641825 15.41134591 6.32331942 17.83060222 7 20.25 C7.45524124 21.863419 7.91096519 23.47670189 8.3671875 25.08984375 C9.39933753 28.74229092 10.42889023 32.3954288 11.44677734 36.05187988 C11.98946083 37.96288731 12.56668771 39.86397708 13.14453125 41.76464844 C14 45 14 45 14 49 C4.76 49 -4.48 49 -14 49 C-11.52535637 37.70271385 -8.53204075 26.60392938 -5.3125 15.5 C-5.00664474 14.43940872 -5.00664474 14.43940872 -4.6946106 13.35739136 C-4.10903722 11.33080874 -3.51844724 9.30576842 -2.92578125 7.28125 C-2.57942627 6.09595703 -2.23307129 4.91066406 -1.8762207 3.68945312 C-1 1 -1 1 0 0 Z " fill="#FBF3DF" transform="translate(518,304)"/>
<path d="M0 0 C0.99 0 1.98 0 3 0 C3.02577725 7.69652575 3.04304176 15.39304002 3.05493164 23.08959961 C3.05989878 25.69702571 3.06667475 28.30444913 3.07543945 30.91186523 C3.12908712 47.30596052 2.89104871 63.62861237 2 80 C1.67 80 1.34 80 1 80 C-0.3206465 53.34471725 -0.10311935 26.67985143 0 0 Z " fill="#402017" transform="translate(336,271)"/>
<path d="M0 0 C10.23 0 20.46 0 31 0 C31 0.33 31 0.66 31 1 C33.475 1.495 33.475 1.495 36 2 C36 9.59 36 17.18 36 25 C35.67 25 35.34 25 35 25 C35 17.74 35 10.48 35 3 C23.78 3 12.56 3 1 3 C0.67 2.01 0.34 1.02 0 0 Z " fill="#E6B629" transform="translate(433,700)"/>
<path d="M0 0 C3.63 0 7.26 0 11 0 C11 0.66 11 1.32 11 2 C8.03 2 5.06 2 2 2 C2.00523682 2.68626465 2.01047363 3.3725293 2.01586914 4.07958984 C2.03660956 7.17805064 2.04965076 10.27649686 2.0625 13.375 C2.07087891 14.45523438 2.07925781 15.53546875 2.08789062 16.6484375 C2.09111328 17.6796875 2.09433594 18.7109375 2.09765625 19.7734375 C2.10289307 20.72653809 2.10812988 21.67963867 2.11352539 22.66162109 C2 25 2 25 1 27 C0.34 26.67 -0.32 26.34 -1 26 C-0.67 17.42 -0.34 8.84 0 0 Z " fill="#E8C82C" transform="translate(497,701)"/>
<path d="M0 0 C1.10923828 -0.00386719 2.21847656 -0.00773437 3.36132812 -0.01171875 C4.51955078 -0.00011719 5.67777344 0.01148438 6.87109375 0.0234375 C8.03318359 0.01183594 9.19527344 0.00023437 10.39257812 -0.01171875 C11.50052734 -0.00785156 12.60847656 -0.00398438 13.75 0 C15.27669312 0.00507568 15.27669312 0.00507568 16.83422852 0.01025391 C17.65076904 0.13835449 18.46730957 0.26645508 19.30859375 0.3984375 C19.96859375 1.3884375 20.62859375 2.3784375 21.30859375 3.3984375 C11.40859375 3.3984375 1.50859375 3.3984375 -8.69140625 3.3984375 C-5.22421645 -0.0687523 -4.66246604 0.0154838 0 0 Z " fill="#4A2519" transform="translate(506.69140625,440.6015625)"/>
<path d="M0 0 C1.33530275 4.00590826 0.02175023 6.48615311 -1.4375 10.25 C-1.70320801 10.94931641 -1.96891602 11.64863281 -2.24267578 12.36914062 C-5.20398592 19.91194087 -9.01380709 26.95840034 -13 34 C-13.33 33.34 -13.66 32.68 -14 32 C-12.96066958 29.73074561 -11.87048297 27.56744274 -10.6875 25.375 C-8.04125451 20.31120492 -6.01512749 15.63959715 -5 10 C-4.34 10 -3.68 10 -3 10 C-2.01 6.7 -1.02 3.4 0 0 Z " fill="#1B0D09" transform="translate(684,675)"/>
<path d="M0 0 C0 3.59947819 -0.83412607 4.25100617 -3 7 C-3.309375 7.639375 -3.61875 8.27875 -3.9375 8.9375 C-5.31391152 11.60935765 -7.0066963 13.75753333 -9 16 C-9.66 16 -10.32 16 -11 16 C-11.33 15.01 -11.66 14.02 -12 13 C-8.04 8.71 -4.08 4.42 0 0 Z " fill="#F9D231" transform="translate(401,512)"/>
<path d="M0 0 C11.22 0 22.44 0 34 0 C34 0.33 34 0.66 34 1 C23.11 1 12.22 1 1 1 C0.67 1.99 0.34 2.98 0 4 C0 2.68 0 1.36 0 0 Z M-2 4 C-1.34 4 -0.68 4 0 4 C-0.33 4.99 -0.66 5.98 -1 7 C-1.66 7 -2.32 7 -3 7 C-2.67 6.01 -2.34 5.02 -2 4 Z " fill="#FAEDD3" transform="translate(496,384)"/>
<path d="M0 0 C-2.31082848 2.31082848 -8.62808329 1.46196809 -11.91796875 1.60546875 C-15.77473093 1.42699095 -15.77473093 1.42699095 -19 3 C-21.33297433 3.04092937 -23.66705225 3.04241723 -26 3 C-26.33 2.01 -26.66 1.02 -27 0 C-22.87536584 -0.19622046 -18.75028427 -0.38050216 -14.625 -0.5625 C-13.449375 -0.61857422 -12.27375 -0.67464844 -11.0625 -0.73242188 C-9.94101562 -0.78076172 -8.81953125 -0.82910156 -7.6640625 -0.87890625 C-6.10872803 -0.94960327 -6.10872803 -0.94960327 -4.52197266 -1.02172852 C-2 -1 -2 -1 0 0 Z " fill="#441F14" transform="translate(485,407)"/>
<path d="M0 0 C0 4.64944672 -1.18181013 7.1608309 -4.4375 10.5 C-5.283125 11.325 -6.12875 12.15 -7 13 C-8.05287814 14.63377642 -9.0727001 16.29181597 -10 18 C-10.33 17.34 -10.66 16.68 -11 16 C-9.70703125 13.57421875 -9.70703125 13.57421875 -7.8125 10.6875 C-6.89404297 9.27017578 -6.89404297 9.27017578 -5.95703125 7.82421875 C-4.078534 5.1133335 -2.09290485 2.5476824 0 0 Z " fill="#1E0E09" transform="translate(369,512)"/>
<path d="M0 0 C1.32 0.33 2.64 0.66 4 1 C2.60244372 3.79511257 0.66081879 3.99822994 -2.17578125 4.953125 C-3.20251953 5.28570313 -3.20251953 5.28570313 -4.25 5.625 C-5.25353516 5.96917969 -5.25353516 5.96917969 -6.27734375 6.3203125 C-9.95355305 7.53367824 -13.12514737 8.28535736 -17 8 C-12.89836161 5.26557441 -8.55261686 4.33274825 -3.8359375 3 C-0.87266717 2.32433586 -0.87266717 2.32433586 0 0 Z " fill="#F6DF30" transform="translate(568,763)"/>
<path d="M0 0 C0.66 0.33 1.32 0.66 2 1 C2.32712342 7.13053511 2.39366878 11.62669111 -1 17 C-1.33 16.34 -1.66 15.68 -2 15 C-1.67 14.34 -1.34 13.68 -1 13 C-0.95466312 10.97967529 -0.96146906 8.95796597 -1 6.9375 C-1.03764677 4.95869142 -1.04662427 2.97861741 -1 1 C-0.67 0.67 -0.34 0.34 0 0 Z " fill="#F8D930" transform="translate(543,579)"/>
<path d="M0 0 C0.33 0 0.66 0 1 0 C1.25287193 6.06892629 0.69832609 11.16200408 -1 17 C-1.66 16.34 -2.32 15.68 -3 15 C-2.64342001 9.7404452 -1.56835699 5.01874237 0 0 Z " fill="#FADC30" transform="translate(667,640)"/>
<path d="M0 0 C-4.74705277 3.16470185 -8.31771295 3.10927475 -14 3 C-13.67 2.01 -13.34 1.02 -13 0 C-8.37078475 -1.0161692 -4.65537393 -0.83796731 0 0 Z " fill="#3C2018" transform="translate(497,443)"/>
<path d="M0 0 C0.639375 0.680625 1.27875 1.36125 1.9375 2.0625 C5.62709757 5.77342473 9.83346374 8.8501349 14 12 C13.01 12.33 12.02 12.66 11 13 C8.79569625 11.42128179 6.83057597 9.85238363 4.8125 8.0625 C3.97428711 7.34030273 3.97428711 7.34030273 3.11914062 6.60351562 C1.73820283 5.41142402 0.36805321 4.20685625 -1 3 C-0.67 2.01 -0.34 1.02 0 0 Z " fill="#F2EDE4" transform="translate(246,839)"/>
<path d="M0 0 C0.33 0 0.66 0 1 0 C1 5.94 1 11.88 1 18 C0.01 17.67 -0.98 17.34 -2 17 C-2.21824777 10.9981863 -1.5056904 5.80766296 0 0 Z " fill="#F3B82D" transform="translate(359,621)"/>
<path d="M0 0 C1.32 0.33 2.64 0.66 4 1 C4 1.66 4 2.32 4 3 C5.32 3 6.64 3 8 3 C7 6 7 6 5 7 C4.01 8.485 4.01 8.485 3 10 C2.01 6.7 1.02 3.4 0 0 Z " fill="#F1C62E" transform="translate(592,632)"/>
<path d="M0 0 C0.33 0.99 0.66 1.98 1 3 C-1.25 5.0625 -1.25 5.0625 -4 7 C-5.32 6.67 -6.64 6.34 -8 6 C-5.36 4.02 -2.72 2.04 0 0 Z " fill="#2C130C" transform="translate(265,183)"/>
<path d="M0 0 C3 1 3 1 4.1875 2.6875 C5.19313465 5.54969093 5.13689641 7.98827908 5 11 C2.03947516 7.63576723 1.07710178 4.30840713 0 0 Z " fill="#240E08" transform="translate(345,686)"/>
<path d="M0 0 C5.75 0.875 5.75 0.875 8 2 C8 2.66 8 3.32 8 4 C9.65 4.33 11.3 4.66 13 5 C9.59068103 6.13643966 8.99664544 5.86747764 5.8125 4.5625 C5.09707031 4.27503906 4.38164063 3.98757813 3.64453125 3.69140625 C3.10183594 3.46324219 2.55914063 3.23507812 2 3 C2 2.34 2 1.68 2 1 C1.34 0.67 0.68 0.34 0 0 Z " fill="#290F09" transform="translate(558,469)"/>
<path d="M0 0 C0 0.66 0 1.32 0 2 C1.32 2.33 2.64 2.66 4 3 C-1.45769811 3.11138159 -6.61509359 2.91657981 -12 2 C-12 1.67 -12 1.34 -12 1 C-10.37512529 0.83211627 -8.75009558 0.66573213 -7.125 0.5 C-6.22007812 0.4071875 -5.31515625 0.314375 -4.3828125 0.21875 C-2 0 -2 0 0 0 Z " fill="#180706" transform="translate(538,464)"/>
<path d="M0 0 C6.625 -0.125 6.625 -0.125 10 1 C10 1.66 10 2.32 10 3 C6.7 2.67 3.4 2.34 0 2 C0 1.34 0 0.68 0 0 Z " fill="#2A0F08" transform="translate(735,175)"/>
<path d="M0 0 C1.32 0.33 2.64 0.66 4 1 C2.70700306 3.88437779 1.34058637 5.87219421 -1 8 C-1.66 7.67 -2.32 7.34 -3 7 C-2.505 6.401875 -2.01 5.80375 -1.5 5.1875 C0.28276418 3.02970006 0.28276418 3.02970006 0 0 Z " fill="#FDDB31" transform="translate(618,730)"/>
<path d="M0 0 C0.66 0.33 1.32 0.66 2 1 C2.40729228 3.32156597 2.74438677 5.6568787 3 8 C2.01 8.495 2.01 8.495 1 9 C-1.14809171 5.77786243 -1.29386153 4.72224599 -1 1 C-0.67 0.67 -0.34 0.34 0 0 Z " fill="#E9C52C" transform="translate(664,581)"/>
<path d="M0 0 C0.66 0 1.32 0 2 0 C1.67 1.98 1.34 3.96 1 6 C1.66 6 2.32 6 3 6 C2.67 7.32 2.34 8.64 2 10 C0.4375 8.375 0.4375 8.375 -1 6 C-0.6875 2.75 -0.6875 2.75 0 0 Z " fill="#3B2B24" transform="translate(574,267)"/>
<path d="M0 0 C1.13199353 0.9080162 2.25532363 1.82683826 3.375 2.75 C4.00148438 3.26046875 4.62796875 3.7709375 5.2734375 4.296875 C7.08312318 6.08199481 8.00117455 7.67949644 9 10 C5.75161077 8.91720359 4.95717417 8.10963155 2.8125 5.5625 C2.01779297 4.63630859 2.01779297 4.63630859 1.20703125 3.69140625 C0 2 0 2 0 0 Z " fill="#29170B" transform="translate(392,721)"/>
<path d="M0 0 C0.598125 0.350625 1.19625 0.70125 1.8125 1.0625 C-0.54188733 2.49194945 -1.66782433 3.14911261 -4.4375 2.6875 C-5.015 2.48125 -5.5925 2.275 -6.1875 2.0625 C-4.66896708 -0.97456585 -3.05066334 -1.30742714 0 0 Z " fill="#F5EEDE" transform="translate(580.1875,788.9375)"/>
<path d="M0 0 C0.99 0.66 1.98 1.32 3 2 C1.68 3.32 0.36 4.64 -1 6 C-1.99 5.67 -2.98 5.34 -4 5 C-2.68 3.35 -1.36 1.7 0 0 Z " fill="#EEC12C" transform="translate(586,681)"/>
<path d="M0 0 C1.28485596 5.13942384 0.22194431 6.37835584 -2 11 C-2.66 10.01 -3.32 9.02 -4 8 C-2.68 5.36 -1.36 2.72 0 0 Z " fill="#F0EADE" transform="translate(790,822)"/>
<path d="M0 0 C2.375 0.3125 2.375 0.3125 5 1 C5.66 1.99 6.32 2.98 7 4 C6.01 4.495 6.01 4.495 5 5 C4.34 4.34 3.68 3.68 3 3 C0.41645782 2.83312552 0.41645782 2.83312552 -2 3 C-1.34 2.67 -0.68 2.34 0 2 C0 1.34 0 0.68 0 0 Z " fill="#F1CA2E" transform="translate(450,564)"/>
<path d="M0 0 C0.66 0.33 1.32 0.66 2 1 C0.35 2.98 -1.3 4.96 -3 7 C-3.99 6.34 -4.98 5.68 -6 5 C-4.02 3.35 -2.04 1.7 0 0 Z " fill="#F9DB31" transform="translate(581,686)"/>
<path d="M0 0 C0.33 0.66 0.66 1.32 1 2 C1.66 2 2.32 2 3 2 C4.625 4 4.625 4 6 6 C4.68 6.33 3.36 6.66 2 7 C0 4 0 4 0 0 Z " fill="#2B1008" transform="translate(621,401)"/>
</svg>
